<mxfile host="app.diagrams.net" modified="2023-06-30T09:31:10.407Z" agent="Mozilla/5.0 (Windows NT 10.0; Win64; x64) AppleWebKit/537.36 (KHTML, like Gecko) Chrome/114.0.0.0 Safari/537.36" version="21.5.0" etag="tclzwO1lAZQdzEzaFzQd" type="github">
  <diagram name="Страница-1" id="NwnzYhnziUj5suIFomlu">
    <mxGraphModel>
      <root>
        <mxCell id="0" />
        <mxCell id="1" parent="0" />
      </root>
    </mxGraphModel>
  </diagram>
</mxfile>
